<svg id="svgMap" viewBox="0 0 768 1344" xmlns="http://www.w3.org/2000/svg" style="width:500px;height:auto;display:block;">
            <g id="g1">
              <path d="m 351.37118,1338.6762 110.65165,-80.5878 230.69824,-203.3485 18.37235,-221.72089 -69.31386,-221.30329 28.39363,-91.86175 23.80054,-14.61437 17.11969,-32.15161 -322.53806,-236.29361 39.26889,-53.44113" id="path21" />
              <path d="m 351.1624,1338.6762 -56.78726,-128.1889 -16.70214,-78.9176 -87.26865,-111.0692 -71.81919,-48.43621 -1.67021,-160.3405 20.04256,-68.47876 -55.762431,-635.9199 35.873461,-48.569418 15.55153,-10.761964 90.41834,58.870312 18.73066,11.504 114.30826,82.40523 25.68717,-33.51143 7.60404,-9.00913" id="path253" />
              <path d="m 121.92559,801.70251 -2.7141,20.87767 1.87899,144.47347 60.54524,39.87635 36.7447,34.6569 60.54524,88.3126 17.11969,80.1702 41.96412,91.8618 13.77926,35.2832 112.11309,-82.0492 53.86438,-48.645 -215.24877,-141.9681 25.67953,-39.4588 -37.78858,-23.8006 40.71146,-62.4242 z" id="zona-donacion" />
              <path d="m 488.942,1185.7434 35.43058,-31.0017 -195.4587,-128.4359 -24.50615,37.4974 z" id="areadereserva-2" />
              <path d="m 448.63972,663.43761 -24.35853,37.94025 13.28647,9.1529 24.50615,-38.67839 z" id="path2" />
              <path d="m 461.92619,671.85237 -24.65378,38.53076 14.17223,9.30053 24.50615,-38.67839 z" id="path3" />
              <path d="m 476.21128,681.2094 -24.65378,38.53076 14.17223,9.30053 24.50615,-38.67839 z" id="path2-5" />
              <path d="m 490.31497,690.62416 -24.65378,38.53076 14.17223,9.30053 24.50615,-38.67839 z" id="path2-52" />
              <path d="m 504.77718,700.01432 -24.65378,38.53076 14.17223,9.30053 24.50615,-38.67839 z" id="path3-2" />
              <path d="m 519.06227,709.51898 -24.65378,38.53076 12.10545,7.97188 25.53954,-38.08788 z" id="path2-5-3" />
              <path d="m 531.98494,717.90034 -24.65378,38.53076 14.17223,9.30053 24.50615,-38.67839 z" id="path2-52-2" />
              <path d="m 547.06085,728.1836 -24.5494,38.1132 13.75468,8.88298 23.77543,-38.05206 z" id="path4" />
              <path d="m 561.77606,738.155 12.19934,7.65871 -24.94904,37.64499 -11.85343,-7.51108 z" id="path5" />
              <path d="m 575.15642,747.14236 13.28646,7.67662 -24.50615,38.38313 c 0,0 -14.17223,-8.41476 -13.72935,-9.1529 0.44288,-0.73814 24.94904,-36.90685 24.94904,-36.90685 z" id="path6" />
              <path d="m 588.88577,755.85237 14.0246,8.85765 -25.8348,37.20211 c 0,0 -13.43409,-7.529 -12.54833,-8.41476 0.88577,-0.88577 24.35853,-37.645 24.35853,-37.645 z" id="path7" />
              <path d="m 604.09139,765.89104 11.95782,8.11951 -23.76801,37.94024 c 0,0 -14.46749,-8.11951 -14.02461,-9.1529 0.44288,-1.03339 25.8348,-36.90685 25.8348,-36.90685 z" id="path8" />
              <path d="m 616.63972,775.19157 12.99121,8.26713 -24.06327,37.20211 -12.10545,-7.38138 z" id="path9" />
              <path d="m 630.5167,784.34447 13.87697,7.67662 -24.8014,38.08787 c 0,0 -13.13884,-7.82425 -12.84358,-8.56238 0.29525,-0.73814 23.76801,-37.20211 23.76801,-37.20211 z" id="path10" />
              <path d="m 644.83656,792.75923 12.4007,7.97188 -23.47276,38.97364 -12.99122,-8.26714 z" id="path11" />
              <path d="m 657.53251,801.32162 6.93849,3.83831 -23.32513,39.56415 -6.93849,-4.42882 z" id="path12" />
              <path d="m 665.20914,806.19332 9.74341,6.93849 -23.62039,37.49737 -9.1529,-5.16696 z" id="path13" />
              <path d="m 652.51318,851.8102 27.16345,19.19156 1.6239,-36.90685 -5.75747,-19.19157 z" id="N-12" />
              <path d="m 666.0949,863.02988 -24.65377,38.97364 38.53075,24.94903 -0.59051,-54.47452 z" id="N-11" />
              <path d="m 649.41301,850.62918 -23.02988,40.74516 13.72935,9.1529 24.94903,-38.2355 z" id="path16" />
              <path d="m 634.94552,842.80492 -23.32513,37.34974 12.84358,9.89104 23.76802,-38.97364 z" id="path18" />
              <path d="m 621.06854,833.79965 -23.1775,37.49736 12.54833,9.00528 23.91564,-38.08788 z" id="path19" />
              <path d="m 607.33919,824.3515 -24.06327,38.82601 13.28647,8.1195 23.62039,-38.2355 z" id="path20" />
              <path d="m 594.49561,816.37962 -23.76802,38.08787 10.92443,7.67662 24.06327,-38.08787 z" id="path22" />
              <path d="m 565.85589,796.74517 -24.35853,37.49736 12.40071,8.26714 24.94903,-37.34974 z" id="path23" />
              <path d="m 550.85731,787.50569 -23.90493,38.5193 13.36171,7.62035 24.84442,-37.47541 z" id="path24" />
              <path d="m 536.86927,777.79758 -23.69615,39.3544 12.31782,7.93352 25.15759,-39.04124 z" id="path25" />
              <path d="m 523.09001,768.19385 -24.00932,38.83247 13.25732,8.35106 23.48738,-38.72807 z" id="path26" />
              <path d="m 510.11746,759.69515 -24.71164,38.66693 12.10904,8.14229 24.74004,-38.72807 z" id="path27" />
              <path d="m 138.41895,444.06803 6.05452,44.88699 26.30587,-30.89895 -20.6689,-20.66889 z" id="N-6" />
              <path d="m 145.51736,496.2622 8.87301,65.45149 29.22873,-33.82182 z" id="N-5" />
              <path d="m 160.02812,665.5044 28.04921,-33.3638 -38.67838,-32.77329 z" id="N-3" />
              <path d="m 161.35677,671.40949 8.1195,66.57997 25.53955,-39.2689 z" id="N-2" />
              <path d="m 156.92794,766.33392 -7.38137,51.22671 13.87698,9.74341 25.09666,-38.97363 z" id="N-1" />
              <path d="m 562.91229,1090.5617 -24.95798,37.9023 8.93146,7.3075 36.68541,-32.6994 z" id="N-7" />
              <path d="m 571.09142,1094.295 25.24953,-38.9066 23.62039,15.7223 -35.59613,31.1114 z" id="N-8" />
              <path d="m 627.78559,1040.478 26.05624,-38.6783 7.23375,6.5693 -1.84535,31.8138 -13.50791,11.3673 z" id="N-9" />
              <path d="m 658.66288,949.4404 -23.71736,38.85134 26.27768,18.01056 5.31459,-52.03868 z" id="N-10" />
              <path d="m 608.37529,737.92123 54.07316,36.64031 -26.8278,-76.93421 z" id="N-13" />
              <path d="M 632.80216,695.43517 587.7064,666.10205 611.71572,627.68713 Z" id="N-14" />
              <path d="m 583.73964,553.25824 c -1.67021,3.65359 -13.04854,20.87767 -13.04854,20.87767 l 39.3544,26.20148 2.50532,-29.22874 z" id="N-15" />
              <path d="m 584.54635,552.41789 10.7804,-19.72415 -5.01064,-3.23604 6.57646,-10.64761 28.60241,20.25134 -12.44013,30.69541 z" id="N-16" />
              <path d="m 600.233,520.37591 26.30586,17.53724 13.36171,-29.95945 -22.23472,-13.4661 z" id="N-17" />
              <path d="m 504.82205,379.97358 c 3.34043,1.25267 186.85514,124.84847 186.85514,124.84847 L 708.5881,472.87921 519.85397,346.77809 492.713,328.82329 462.44038,303.14376 424.02547,267.44295 387.9071,239.04932 l -22.33911,27.55852 56.99604,46.76598 24.42687,24.00932 z" id="areadereserva" />
              <path d="m 423.39543,420.29526 17.08787,12.47451 24.54306,-40.22847 -13.13884,-7.67662 z" id="N-20" />
              <path d="m 421.6239,420.44288 -27.60632,35.72584 17.12478,12.54833 23.1775,-38.53076 z" id="N-21" />
              <path d="m 257.63044,138.94089 92.2793,68.26998 5.63697,-5.63697 -93.53196,-66.80854 -3.5492,3.5492 z" id="zona-verde-5" />
              <path d="m 170.65729,203.28295 24.80141,20.66784 29.37786,-37.49736 -12.40071,-11.51494 z" id="N-28" />
              <path d="m 213.91213,175.23374 18.15817,16.09139 23.76801,-29.96836 -10.62917,-8.26714 z" id="N-27" />
              <path d="m 127.40246,264.25308 10.48155,7.67662 27.4587,-35.28295 -16.53427,-13.72935 -24.80141,15.20562 z" id="N-34" />
              <path d="m 128.1406,267.79613 8.41476,63.92268 28.63972,-34.84007 z" id="N-33" />
              <path d="m 216.42179,340.35501 -29.67311,35.65202 6.64324,5.16696 42.81195,-23.91564 z" id="N-32" />
              <path d="m 198.26362,445.09666 45.91213,-56.39367 -69.68014,37.64499 z" id="N-38" />
              <path d="m 340.51479,503.04745 c 1.46144,1.14827 16.18019,12.83977 16.18019,12.83977 l 24.00932,-38.31053 -12.63099,-10.02128 z" id="N-22" />
              <path d="m 339.67968,503.67378 -28.08046,35.90959 14.77095,12.89196 25.00101,-38.98905 z" id="N-23" />
              <path d="m 279.31107,606.01055 17.56767,11.14586 25.09666,-37.7188 -14.31986,-7.97188 z" id="N-24" />
              <path d="m 285.21617,612.50615 -28.49209,34.9877 16.6819,11.36731 24.50615,-38.2355 z" id="path55" />
              <path d="m 210.81195,710.08787 18.30581,10.48155 23.768,-37.20211 -13.43409,-8.71002 z" id="path56" />
              <path d="m 119.62905,196.04132 c 0.93949,5.53258 2.08776,17.53724 2.08776,17.53724 l 108.35511,-71.92357 -13.4661,-10.54323 z" id="zona-verde-2" />
              <path d="m 87.268658,146.77001 6.472078,48.95814 27.506324,-18.63332 -24.687839,-36.95347 z" id="N-35" />
              <path d="m 153.34648,102.0918 25.47076,38.04956 24.94881,-17.69383 -39.66757,-27.558522 z" id="N-36" />
              <path d="m 132.99075,50.52396 84.03262,62.63301 5.53259,-5.21942 z" id="zona-verde-4" />
              <path d="m 82.258018,107.31122 4.279922,37.68419 76.82982,-51.672227 -45.51332,-33.50866 6.15892,18.894291 -24.426876,19.103068 z" id="zona-verde-3" />
              <path d="m 189.36046,788.75835 -24.94881,38.5193 12.10905,8.45546 25.57514,-39.14563 z" id="path62" />
              <path d="m 202.72217,797.94453 -24.94881,38.5193 12.10905,8.45546 25.57514,-39.14563 z" id="path63" />
              <path d="m 216.60582,806.92192 -24.94881,38.5193 12.10905,8.45546 25.57514,-39.14563 z" id="path64" />
              <path d="m 231.32457,816.0037 -24.94881,38.5193 12.10905,8.45546 25.57514,-39.14563 z" id="path65" />
              <path d="m 216.60582,806.92192 -24.94881,38.5193 12.10905,8.45546 25.57514,-39.14563 z" id="path66" />
              <path d="m 246.46088,825.29426 -24.94881,38.5193 12.10905,8.45546 25.57514,-39.14563 z" id="path67" />
              <path d="m 259.92698,834.48043 -24.94881,38.5193 12.10905,8.45546 25.57514,-39.14563 z" id="path68" />
              <path d="m 273.60185,843.6666 -24.94881,38.5193 12.10905,8.45546 25.57514,-39.14563 z" id="path69" />
              <path d="m 287.17234,852.74839 -24.94881,38.5193 12.10905,8.45546 25.57514,-39.14563 z" id="path70" />
              <path d="m 300.84721,861.51701 -24.94881,38.5193 12.10905,8.45546 25.57514,-39.14563 z" id="path71" />
              <path d="m 314.31331,870.5988 -24.94881,38.5193 12.10905,8.45546 25.57514,-39.14563 z" id="path72" />
              <path d="m 327.36186,879.88936 -24.94881,38.5193 12.10905,8.45546 25.57514,-39.14563 z" id="path73" />
              <path d="m 341.45429,888.65798 -24.94881,38.5193 12.10905,8.45546 25.57514,-39.14563 z" id="path74" />
              <path d="m 354.816,897.53099 -24.94881,38.5193 12.10905,8.45546 25.57514,-39.14563 z" id="path75" />
              <path d="m 368.07332,906.29961 -24.94881,38.5193 12.10905,8.45546 25.57514,-39.14563 z" id="path76" />
              <path d="m 381.95697,914.85947 -26.20148,38.93686 12.63099,8.76862 25.36637,-40.81585 z" id="path77" />
              <path d="m 394.37918,923.31493 -24.42688,39.66758 11.27395,7.82912 25.26198,-38.83246 z" id="path78" />
              <path d="m 408.15844,933.23183 12.42221,8.14229 -24.32248,38.10175 -13.25732,-8.35107 z" id="path79" />
              <path d="m 408.15844,933.23183 12.42221,8.14229 -24.32248,38.10175 -13.25732,-8.35107 z" id="path80" />
              <path d="m 422.14648,942.20923 12.42221,8.14229 -24.32248,38.10175 -13.25732,-8.35107 z" id="path81" />
              <path d="m 435.82135,950.97785 12.42221,8.14229 -24.32248,38.10175 -13.25732,-8.35107 z" id="path82" />
              <path d="m 449.80939,959.95525 12.42221,8.14229 -24.32248,38.10176 -13.25732,-8.35108 z" id="path83" />
              <path d="m 463.1711,968.93265 -24.63565,38.20615 12.73538,7.9857 24.53126,-38.93687 z" id="path84" />
              <path d="m 476.74159,977.23152 -24.53126,38.67588 11.53491,7.6203 23.90493,-38.51926 z" id="path85" />
              <path d="m 489.05942,985.53039 -24.53126,38.67591 11.53491,7.6203 24.47907,-38.04954 z" id="path86" />
              <path d="m 501.69041,993.88146 -24.53126,38.67594 11.53491,7.6203 23.90493,-38.5193 z" id="path87" />
              <path d="m 514.21701,1002.1281 -24.53126,38.676 11.53491,7.6203 23.90493,-38.5193 z" id="path88" />
              <path d="m 526.32605,1010.5836 -23.85273,38.5194 12.42221,8.351 23.90493,-38.5193 z" id="path89" />
              <path d="m 540.10532,1019.7176 -24.06152,38.5716 12.73538,8.5598 23.90493,-38.5193 z" id="path90" />
              <path d="m 553.62361,1029.3213 -23.85274,38.2585 12.63099,8.2988 23.90493,-38.5193 z" id="path91" />
              <path d="m 567.24629,1038.2465 -23.69616,38.3628 12.37002,7.9857 23.90493,-38.5193 z" id="path92" />
              <path d="m 580.69244,1046.6784 -23.84182,38.6046 13.13884,8.1933 25.09666,-38.457 z" id="path93" />
              <path d="m 307.65554,977.14587 15.79613,10.62918 23.47276,-39.04746 -14.91037,-9.37434 z" id="path94" />
              <path d="m 324.41125,988.587 12.47452,8.26713 23.39894,-38.2355 -12.76977,-9.1529 z" id="path95" />
              <path d="m 337.91916,997.2232 c 0.73813,0.59051 12.47451,8.5624 12.47451,8.5624 l 23.91565,-38.23551 -13.28647,-8.19332 z" id="path96" />
              <path d="m 375.34271,968.1406 13.43409,7.89807 -24.57996,38.82603 c 0,0 -13.58172,-7.8981 -13.28647,-8.4886 0.29525,-0.5905 24.43234,-38.2355 24.43234,-38.2355 z" id="path97" />
              <path d="m 389.21968,976.26011 -24.21089,38.89979 12.62214,8.5624 24.28471,-39.4165 z" id="path98" />
              <path d="m 402.87522,985.3392 -24.21089,38.8998 12.62214,8.5624 24.28471,-39.41651 z" id="path99" />
              <path d="m 416.45694,994.19685 -24.21089,38.89975 12.62214,8.5624 24.28471,-39.4165 z" id="path100" />
              <path d="m 430.18629,1003.2759 -24.21089,38.8998 12.62214,8.5624 24.28471,-39.4165 z" id="path101" />
              <path d="m 444.28471,1012.2074 -24.21089,38.8998 12.62214,8.5624 24.28471,-39.4165 z" id="path102" />
              <path d="m 457.86643,1021.8032 -24.21089,38.8998 12.62214,8.5624 24.28471,-39.4165 z" id="path103" />
              <path d="m 471.66959,1030.9561 -24.21089,38.8998 12.62214,8.5624 24.28471,-39.4165 z" id="path104" />
              <path d="m 485.54657,1040.1828 -24.21089,38.8998 12.03163,7.8981 24.2109,-39.1951 z" id="path105" />
              <path d="m 508.72407,1055.0194 -24.21089,38.8998 10.99824,6.9385 25.90861,-37.7926 z" id="path106" />
              <path d="m 474.4007,1087.4235 8.93146,5.9051 24.57997,-38.6045 -9.44815,-6.2004 z" id="path107" />
              <path d="m 521.93673,1063.8032 -25.76098,38.014 12.4007,8.1933 26.20387,-37.4235 z" id="path108" />
              <path d="m 535.7399,1073.3251 -26.42531,37.276 11.81019,8.0457 26.13005,-38.2355 z" id="path109" />
              <path d="m 547.91916,1081.2232 -26.13005,38.1617 14.68892,8.6362 c 0,0 25.68717,-36.9807 25.61336,-37.645 -0.0738,-0.6643 -14.17223,-9.1529 -14.17223,-9.1529 z" id="path110" />
              <path d="m 161.38439,666.5196 1.46143,4.59309 8.76862,7.62035 28.60241,-36.22276 -11.90027,-8.9774 z" id="path111" />
              <path d="m 172.34516,679.15059 12.42222,10.752 29.75067,-35.70082 -13.98803,-11.27394 z" id="path112" />
              <path d="m 185.60248,690.42453 c 0,0 12.21344,10.23006 12.63099,10.02128 0.41756,-0.20877 28.18486,-36.95347 28.18486,-36.95347 l -11.6915,-8.45546 z" id="path113" />
              <path d="m 199.38174,700.96775 10.43884,8.14229 28.76053,-35.16404 -11.53645,-9.82733 z" id="path114" />
              <path d="m 195.20621,699.92387 13.04854,9.39495 -24.00932,37.26664 -12.94415,-8.35107 z" id="path115" />
              <path d="m 208.35914,710.57148 -23.80054,37.05787 15.2407,10.02128 23.2786,-38.62369 z" id="path44" />
              <path d="m 223.91301,719.75766 -23.27861,38.72807 12.31783,7.82913 23.51053,-39.16355 z" id="path117" />
              <path d="m 237.90104,727.89995 -24.00932,39.04124 12.83977,8.9774 25.15759,-39.25002 z" id="path118" />
              <path d="m 252.6198,737.2949 -25.26198,39.14563 11.16955,7.72474 25.57515,-39.66758 z" id="path119" />
              <path d="m 264.93763,745.54158 -25.05321,39.25002 13.67488,9.29056 24.42687,-39.66757 z" id="path120" />
              <path d="m 254.70757,794.08216 10.96077,7.30718 25.38429,-38.74599 -12.12697,-7.70682 z" id="path121" />
              <path d="m 291.86982,763.18321 -24.68939,38.24195 12.41481,8.19603 24.90557,-38.1913 z" id="path122" />
              <path d="m 305.33592,771.74305 -24.39413,38.68483 12.4148,8.19603 24.61032,-38.63418 z" id="path123" />
              <path d="m 318.90641,781.34679 -24.68938,38.24195 12.4148,8.63891 24.90557,-38.63418 z" id="path124" />
              <path d="m 332.57384,790.69848 -24.68938,38.09433 12.11955,7.60551 24.46269,-38.48655 z" id="path125" />
              <path d="m 372.14446,816.00372 -24.32248,38.72807 12.31782,8.24668 24.21809,-39.04124 z" id="path126" />
              <path d="m 385.29739,824.98111 -24.32248,38.72807 12.31782,8.24668 24.21809,-39.04124 z" id="path127" />
              <path d="m 398.55471,834.0629 -24.32248,38.72807 12.31782,8.24668 24.21809,-39.04124 z" id="path128" />
              <path d="m 412.02081,842.93591 -24.32248,38.72807 12.31782,8.24668 24.21809,-39.04124 z" id="path129" />
              <path d="m 425.38252,851.70453 -24.32248,38.72807 12.31782,8.24668 24.21809,-39.04124 z" id="path130" />
              <path d="m 438.74423,860.36876 -24.32248,38.72807 12.31782,8.24668 24.21809,-39.04124 z" id="path131" />
              <path d="m 452.21033,869.03299 -24.32248,38.72807 12.31782,8.24668 24.21809,-39.04124 z" id="path132" />
              <path d="m 465.46765,877.906 -24.32248,38.72807 12.31782,8.24668 24.21809,-39.04124 z" id="path133" />
              <path d="m 478.93375,886.67462 -24.32248,38.72807 12.31782,8.24668 24.21809,-39.04124 z" id="path134" />
              <path d="m 492.39985,895.75641 -24.32248,38.72807 12.31782,8.24668 24.21809,-39.04124 z" id="path135" />
              <path d="m 506.07472,904.62942 -24.32248,38.72807 12.31782,8.24668 24.21809,-39.04124 z" id="path136" />
              <path d="m 519.43643,913.39804 -24.32248,38.72807 12.31782,8.24668 24.21809,-39.04124 z" id="path137" />
              <path d="m 532.79814,922.16666 -24.32248,38.72807 12.31782,8.24668 24.21809,-39.04124 z" id="path138" />
              <path d="m 546.36863,931.14406 -24.32248,38.72807 12.31782,8.24668 24.21809,-39.04124 z" id="path139" />
              <path d="m 559.83473,940.22585 -24.32248,38.72807 12.31782,8.24668 24.21809,-39.04124 z" id="path140" />
              <path d="m 573.5096,949.20325 -24.32248,38.72807 12.31782,8.24668 24.21809,-39.04124 z" id="path141" />
              <path d="m 587.28886,957.97187 -24.32248,38.72807 12.31782,8.24666 24.21809,-39.04122 z" id="path142" />
              <path d="m 600.65057,966.74049 -24.32248,38.72811 12.31782,8.2466 24.21809,-39.0412 z" id="path143" />
              <path d="m 614.01228,975.40472 -24.32248,38.72808 12.31782,8.2466 24.21809,-39.04117 z" id="path144" />
              <path d="m 627.16521,984.59089 -24.32248,38.72811 12.31782,8.2466 24.21809,-39.0412 z" id="path145" />
              <path d="m 640.10935,993.4639 -24.00932,38.6237 11.06516,7.516 24.84443,-37.1623 z" id="path146" />
              <path d="m 645.53756,940.53901 -24.32248,38.72808 12.31782,8.2466 24.21809,-39.04117 z" id="path147" />
              <path d="m 632.38463,931.45723 -24.32248,38.72807 12.31782,8.24666 24.21809,-39.04122 z" id="path148" />
              <path d="m 618.91853,922.58422 -24.32248,38.72807 12.31782,8.24666 24.21809,-39.04122 z" id="path149" />
              <path d="m 605.34804,913.50243 -24.32248,38.72807 12.31782,8.24666 24.21809,-39.04122 z" id="path150" />
              <path d="m 591.98633,904.8382 -24.32248,38.72807 12.31782,8.24666 24.21809,-39.04122 z" id="path151" />
              <path d="m 578.31146,895.96519 -24.32248,38.72807 12.31782,8.24666 24.21809,-39.04122 z" id="path152" />
              <path d="m 564.21903,886.57024 -24.32248,38.72807 12.31782,8.24666 24.21809,-39.04122 z" id="path153" />
              <path d="m 550.54416,877.90601 -24.32248,38.72807 12.31782,8.24666 24.21809,-39.04122 z" id="path154" />
              <path d="m 536.97367,868.82422 -24.32248,38.72807 12.31782,8.24666 24.21809,-39.04122 z" id="path155" />
              <path d="m 523.50757,860.0556 -24.32248,38.72807 12.31782,8.24666 24.21809,-39.04122 z" id="path156" />
              <path d="m 510.35464,850.97381 -24.32248,38.72807 12.31782,8.24666 24.21809,-39.04122 z" id="path157" />
              <path d="m 497.09732,842.1008 -24.32248,38.72807 12.31782,8.24666 24.21809,-39.04122 z" id="path158" />
              <path d="m 483.63122,833.33218 -24.32248,38.72807 12.31782,8.24666 24.21809,-39.04122 z" id="path159" />
              <path d="m 470.26951,824.56356 -24.32248,38.72807 12.31782,8.24666 24.21809,-39.04122 z" id="path160" />
              <path d="m 456.49025,815.69055 -24.32248,38.72807 12.31782,8.24666 24.21809,-39.04122 z" id="path161" />
              <path d="m 358.56274,807.14608 -24.32248,38.72807 12.31782,8.24668 24.21809,-39.04124 z" id="path1" />
              <path d="m 345.57153,799.02658 -24.47011,38.13755 12.02257,7.95143 24.21809,-39.04124 z" id="path162" />
              <path d="m 210.81195,710.08787 18.30581,10.48155 23.768,-37.20211 -13.43409,-8.71002 z" id="N-26" />
              <path d="m 268.4921,692.88048 -24.24867,37.8423 12.83452,7.87761 22.96326,-37.71259 z" id="path164" />
              <path d="m 254.98419,684.02284 -24.24867,37.8423 12.83452,7.87761 22.96326,-37.71259 z" id="path165" />
              <path d="m 282.14764,701.44287 -24.24867,37.8423 12.83452,7.87761 22.96326,-37.71259 z" id="path166" />
              <path d="m 294.8436,710.37433 -22.99384,37.69467 11.6535,7.95142 23.55377,-37.34352 z" id="path167" />
              <path d="m 294.8436,710.37433 -22.99384,37.69467 11.6535,7.95142 23.55377,-37.34352 z" id="path168" />
              <path d="m 308.42532,719.45342 -22.99384,37.69467 11.6535,7.95142 23.55377,-37.34352 z" id="path169" />
              <path d="m 321.7856,728.16344 -22.99384,37.69467 11.6535,7.95142 23.55377,-37.34352 z" id="path170" />
              <path d="m 335.14588,736.94727 -22.99384,37.69467 11.6535,7.95142 23.55377,-37.34352 z" id="path171" />
              <path d="m 348.50616,746.10017 -22.99384,37.69467 11.6535,7.95142 23.55377,-37.34352 z" id="path172" />
              <path d="m 362.01407,754.884 -22.99384,37.69467 11.6535,7.95142 23.55377,-37.34352 z" id="path173" />
              <path d="m 375.30054,763.59402 -22.99384,37.69467 11.6535,7.95142 23.55377,-37.34352 z" id="path174" />
              <path d="m 388.66082,772.37785 -22.99384,37.69467 11.6535,7.95142 23.55377,-37.34352 z" id="path175" />
              <path d="m 401.79966,781.01405 -22.99384,37.69467 11.6535,7.95142 23.55377,-37.34352 z" id="path176" />
              <path d="m 415.4552,790.01932 -22.99384,37.69467 11.6535,7.95142 23.55377,-37.34352 z" id="path177" />
              <path d="m 428.52023,798.87696 -22.99384,37.69467 11.6535,7.95142 23.55377,-37.34352 z" id="path178" />
              <path d="m 442.24958,807.80842 -22.99384,37.69467 11.6535,7.95142 23.55377,-37.34352 z" id="path179" />
              <path d="m 496.32765,750.41177 -24.65378,38.53076 12.10545,7.97188 25.53954,-38.08788 z" id="path180" />
              <path d="m 482.15542,741.4065 -24.65378,38.53076 12.10545,7.97188 25.53954,-38.08788 z" id="path181" />
              <path d="m 467.98319,731.95835 -24.65378,38.53076 13.13884,8.41476 24.50615,-38.53076 z" id="path182" />
              <path d="m 453.66333,722.95307 -24.65378,38.53076 13.13884,8.41476 24.50615,-38.53076 z" id="path183" />
              <path d="m 439.4911,713.3573 -24.65378,38.53076 13.13884,8.41476 24.50615,-38.53076 z" id="path184" />
              <path d="m 580.17575,806.34095 -24.35853,37.49736 12.40071,8.26714 24.94903,-37.34974 z" id="path185" />
              <path d="m 426.05273,704.47803 -24.50616,38.82601 12.10545,7.67663 24.50615,-38.67839 z" id="path186" />
              <path d="m 411.58524,695.02987 -24.2109,38.97364 12.99121,8.26714 24.50615,-38.67839 z" id="path187" />
              <path d="m 411.58524,695.02987 -24.2109,38.97364 12.99121,8.26714 24.50615,-38.67839 z" id="path188" />
              <path d="m 397.56064,685.72934 -24.2109,38.97364 12.99121,8.26714 24.50615,-38.67839 z" id="path189" />
              <path d="m 383.38841,676.28119 -24.2109,38.97364 12.99121,8.26714 24.50615,-38.67839 z" id="path190" />
              <path d="m 369.21618,667.27592 -24.2109,38.97364 12.99121,8.26714 24.50615,-38.67839 z" id="path191" />
              <path d="m 354.60107,657.68014 -24.2109,38.97364 12.99121,8.26714 24.50615,-38.67839 z" id="path192" />
              <path d="m 342.348,648.8225 -25.09667,38.53075 12.10545,7.97189 24.50615,-38.67839 z" id="path193" />
              <path d="m 328.61865,639.6696 -25.09667,38.53075 12.10545,7.97189 24.50615,-38.67839 z" id="path194" />
              <path d="m 315.03693,630.07382 -25.09667,38.53075 12.10545,7.97189 24.50615,-38.67839 z" id="path195" />
              <path d="m 285.21617,612.50615 -28.49209,34.9877 16.6819,11.36731 24.50615,-38.2355 z" id="N-25" />
              <path d="m 299.83131,621.06855 -24.35853,38.23549 12.99121,8.71003 24.50615,-38.67839 z" id="path197" />
              <path d="m 350.61514,599.21969 -24.65379,37.2021 12.69596,8.71003 24.94903,-37.49737 z" id="path198" />
              <path d="m 364.49212,608.81547 -24.65379,37.2021 12.69596,8.71003 24.94903,-37.49737 z" id="path199" />
              <path d="m 378.51672,618.26362 -24.65379,37.2021 12.69596,8.71003 24.94903,-37.49737 z" id="path200" />
              <path d="m 392.54132,627.56415 -24.65379,37.2021 12.69596,8.71003 24.94903,-37.49737 z" id="path201" />
              <path d="m 406.56593,636.71705 -24.65379,37.2021 12.69596,8.71003 24.94903,-37.49737 z" id="path202" />
              <path d="m 420.59053,645.86995 -24.65379,37.2021 12.69596,8.71003 24.94903,-37.49737 z" id="path203" />
              <path d="m 434.31988,654.72759 -24.65379,37.2021 12.69596,8.71003 24.94903,-37.49737 z" id="path204" />
              <path d="m 336.88579,589.99298 -24.65379,37.2021 12.69596,8.71003 24.94903,-37.49737 z" id="path205" />
              <path d="m 322.935,580.61864 -24.65379,37.2021 12.69596,8.71003 24.94903,-37.49737 z" id="path206" />
              <path d="m 296.35852,562.44441 -28.60241,34.23938 10.43883,8.35107 28.60241,-34.65694 z" id="path207" />
              <path d="m 255.54267,585.72301 10.752,9.60373 29.12435,-34.13499 -12.21344,-9.8125 z" id="path208" />
              <path d="m 253.66368,584.47035 -10.54322,-8.35107 28.28924,-34.44815 10.64761,9.08178 z" id="path209" />
              <path d="m 234.97817,571.52619 -29.01996,35.38766 c 0,0 12.00466,10.64761 12.5266,10.54322 0.52194,-0.10439 28.18485,-36.22276 28.18485,-36.22276 z" id="path210" />
              <path d="m 248.02671,581.65187 -27.97608,36.74469 10.64762,8.55985 28.70679,-36.01398 z" id="path211" />
              <path d="m 260.76208,592.0907 -29.01995,35.90959 11.79588,9.08179 28.49802,-34.86572 z" id="path212" />
              <path d="m 273.07992,602.73831 -28.39364,35.70082 10.43884,8.24668 28.70679,-34.9701 z" id="path213" />
              <path d="m 222.97351,561.19175 -29.22874,34.97009 11.16955,9.81251 29.12435,-35.28326 z" id="path214" />
              <path d="m 198.12909,540.20969 10.6476,9.60373 -28.81118,34.86571 -11.06516,-9.70812 z" id="path215" />
              <path d="m 184.76738,528.72698 12.10904,10.43883 -29.12434,35.17888 -12.73538,-10.96078 z" id="path216" />
              <path d="m 210.34253,550.54414 11.06515,9.29056 -29.22873,35.49204 -11.06516,-9.70812 z" id="path217" />
              <path d="m 198.0247,479.03813 11.90026,9.8125 -29.12434,35.17888 -11.27394,-9.39495 z" id="path218" />
              <path d="m 185.28932,468.18174 11.90026,9.8125 -29.12434,35.17888 -11.27394,-9.39495 z" id="path219" />
              <path d="m 210.86447,489.99891 11.16954,8.873 -29.12434,35.17888 -11.27394,-9.39495 z" id="path220" />
              <path d="m 144.94322,490.36426 0.31316,3.75798 10.43884,9.18617 28.02827,-35.90959 -11.53491,-8.66423 z" id="path221" />
              <path d="m 223.04373,500.33283 11.16954,8.873 -29.12434,35.17888 -11.27394,-9.39495 z" id="path222" />
              <path d="m 235.51825,510.88819 11.16954,8.873 -29.12434,35.17888 -11.27394,-9.39495 z" id="path223" />
              <path d="m 247.84514,521.22211 11.16954,8.873 -29.12434,35.17888 -11.27394,-9.39495 z" id="path224" />
              <path d="m 260.0244,531.4084 10.28378,8.94681 -28.23858,35.10507 -11.27394,-9.39495 z" id="path225" />
              <path d="m 227.7891,410.8471 11.21969,9.44815 -27.9754,35.79965 -11.73638,-10.33392 z" id="path226" />
              <path d="m 239.96836,421.03339 10.99825,9.1529 -27.90159,35.94728 -10.99824,-9.44816 z" id="path227" />
              <path d="m 252.29525,431.2935 10.99825,9.1529 -27.90159,35.94728 -10.99824,-9.44816 z" id="path228" />
              <path d="m 264.54833,441.70123 10.99825,9.1529 -27.90159,35.94728 -10.99824,-9.44816 z" id="path229" />
              <path d="m 277.02285,452.03515 10.99825,9.1529 -27.90159,35.94728 -10.99824,-9.44816 z" id="path230" />
              <path d="m 289.34974,462.29526 10.99825,9.1529 -27.90159,35.94728 -10.99824,-9.44816 z" id="path231" />
              <path d="m 301.45519,472.48155 10.99825,9.1529 -27.90159,35.94728 -10.99824,-9.44816 z" id="path232" />
              <path d="m 314.00352,483.03691 10.99825,9.1529 -27.90159,35.94728 -10.99824,-9.44816 z" id="path233" />
              <path d="m 326.47804,493.44464 10.99825,9.1529 -27.90159,35.94728 -10.99824,-9.44816 z" id="path234" />
              <path d="m 355.85589,456.68542 10.99825,9.1529 -27.90159,35.94728 -10.99824,-9.44816 z" id="path235" />
              <path d="m 343.97188,446.57294 10.99825,9.1529 -27.90159,35.94728 -10.99824,-9.44816 z" id="path236" />
              <path d="m 331.64499,436.38665 10.99825,9.1529 -27.90159,35.94728 -10.99824,-9.44816 z" id="path237" />
              <path d="m 319.24429,425.75748 10.99825,9.1529 -27.90159,35.94728 -10.99824,-9.44816 z" id="path238" />
              <path d="m 306.84359,415.57119 10.99825,9.1529 -27.90159,35.94728 -10.99824,-9.44816 z" id="path239" />
              <path d="m 294.5167,405.31108 10.99825,9.1529 -27.90159,35.94728 -10.99824,-9.44816 z" id="path240" />
              <path d="m 282.116,394.90335 10.99825,9.1529 -27.90159,35.94728 -10.99824,-9.44816 z" id="path241" />
              <path d="m 269.64148,384.56943 10.99825,9.1529 -27.90159,35.94728 -10.99824,-9.44816 z" id="path242" />
              <path d="m 257.09315,374.01407 10.99825,9.1529 -27.90159,35.94728 -10.99824,-9.44816 z" id="path243" />
              <path d="m 352.25847,514.26919 12.73538,9.13397 -24.1659,38.72808 -13.57048,-8.97739 z" id="path244" />
              <path d="m 366.24651,524.23827 -24.21809,38.83247 12.89196,9.13398 24.56708,-39.25897 z" id="path245" />
              <path d="m 380.80869,533.63323 -24.79223,39.3544 13.46609,8.61204 24.11371,-39.71976 z" id="path246" />
              <path d="m 394.95331,542.66282 -24.27029,39.51099 12.83976,8.66423 24.58346,-39.77196 z" id="path247" />
              <path d="m 409.15013,551.7968 -24.2703,39.56318 12.63099,8.61204 24.37468,-40.08512 z" id="path248" />
              <path d="m 422.8772,560.82639 -24.2703,39.56318 12.63099,8.61204 24.37468,-40.08512 z" id="path249" />
              <path d="m 436.76085,569.96037 -24.2703,39.56318 12.63099,8.61204 24.37468,-40.08512 z" id="path250" />
              <path d="m 450.6445,579.04216 -24.2703,39.56318 12.10905,7.88132 24.58345,-39.77195 z" id="path251" />
              <path d="m 508.14538,560.58873 -24.2703,39.56318 12.10905,7.88132 24.58345,-39.77195 z" id="path252" />
              <path d="m 381.91212,478.53427 12.76977,8.85764 -23.47275,38.45694 -13.50792,-9.37434 z" id="path254" />
              <path d="m 428.04569,562.68189 13.21266,8.71002 24.13708,-38.08787 -13.28647,-8.63621 z" id="path255" />
              <path d="m 413.87346,553.38136 13.21266,8.71002 24.13708,-38.08787 -13.28647,-8.63621 z" id="path256" />
              <path d="m 399.62741,544.22846 13.21266,8.71002 24.13708,-38.08787 -13.28647,-8.63621 z" id="path257" />
              <path d="m 385.23374,534.63268 13.21266,8.71002 24.13708,-38.08787 -13.28647,-8.63621 z" id="path258" />
              <path d="m 372.39016,526.6608 11.66257,7.529 24.13708,-38.08787 -12.32689,-8.19333 z" id="path259" />
              <path d="m 442.21792,572.13004 13.21266,8.71002 24.13708,-38.08787 -13.28647,-8.63621 z" id="path260" />
              <path d="m 456.61159,581.28294 13.21266,8.71002 24.13708,-38.08787 -13.28647,-8.63621 z" id="path261" />
              <path d="m 521.50566,569.594 -24.2703,39.56318 12.10905,7.88132 24.58345,-39.77195 z" id="path262" />
              <path d="m 494.93273,551.65727 -24.2703,39.56318 12.10905,7.88132 24.58345,-39.77195 z" id="path263" />
              <path d="m 535.38264,578.82071 -24.2703,39.56318 12.10905,7.88132 24.58345,-39.77195 z" id="path264" />
              <path d="m 549.62869,587.75217 -24.2703,39.56318 12.10905,7.88132 24.58345,-39.77195 z" id="path265" />
              <path d="m 563.65329,596.97888 -24.2703,39.56318 12.10905,7.88132 24.58345,-39.77195 z" id="path266" />
              <path d="m 578.19459,605.76271 -24.2703,39.56318 12.10905,7.88132 24.58345,-39.77195 z" id="path267" />
              <path d="m 546.89758,643.11245 -24.2703,39.56318 12.10905,7.88132 24.58345,-39.77195 z" id="path268" />
              <path d="m 566.88927,654.21089 10.40774,6.20035 23.62038,-39.3427 -9.52197,-6.71705 z" id="path269" />
              <path d="m 602.0246,622.17574 8.34095,5.53603 -24.28471,37.79262 -8.11951,-4.42883 z" id="path270" />
              <path d="m 560.92218,652.04391 -24.2703,39.56318 12.10905,7.88132 24.58345,-39.77195 z" id="path271" />
              <path d="m 575.16823,660.90155 -24.2703,39.56318 12.10905,7.88132 24.58345,-39.77195 z" id="path272" />
              <path d="m 589.11902,669.31631 -24.2703,39.56318 12.10905,7.88132 24.58345,-39.77195 z" id="path273" />
              <path d="m 533.16823,634.18099 -24.2703,39.56318 12.10905,7.88132 24.58345,-39.77195 z" id="path274" />
              <path d="m 602.54129,677.24077 8.19332,5.53603 -24.72759,39.49033 -8.19332,-4.72408 z" id="path275" />
              <path d="m 612.06326,683.58874 9.44816,6.12654 -25.24429,39.56415 -9.1529,-6.42179 z" id="path276" />
              <path d="m 622.84006,690.67486 -25.39191,39.49034 9.59578,6.42179 25.3181,-38.97364 z" id="path277" />
              <path d="m 495.14235,663.9543 12.32689,8.19332 24.43234,-38.7522 -13.06503,-8.34094 z" id="path278" />
              <path d="m 505.11902,616.53952 -23.7536,38.52979 12.62574,8.10276 23.55006,-38.96 z" id="path279" />
              <path d="m 491.46348,607.60806 -23.7536,38.52979 12.62574,8.10276 23.55006,-38.96 z" id="path280" />
              <path d="m 477.5865,598.75042 -23.7536,38.52979 12.62574,8.10276 23.55006,-38.96 z" id="path281" />
              <path d="m 463.93096,588.49032 -24.04885,39.34174 12.62574,8.10276 23.7715,-38.96 z" id="path282" />
              <path d="m 477.13181,458.45694 -23.32514,38.38313 12.54833,8.41476 23.39895,-38.826 z" id="path283" />
              <path d="m 491.00879,467.60984 -23.32514,38.38313 12.54833,8.41476 23.39895,-38.826 z" id="path284" />
              <path d="m 505.03339,476.68893 -23.32514,38.38313 12.54833,8.41476 23.39895,-38.826 z" id="path285" />
              <path d="m 518.76274,485.6942 -23.32514,38.38313 12.54833,8.41476 23.39895,-38.826 z" id="path286" />
              <path d="m 532.93497,494.99473 -23.32514,38.38313 12.54833,8.41476 23.39895,-38.826 z" id="path287" />
              <path d="m 463.32864,449.37786 -23.32514,38.38313 12.54833,8.41476 23.39895,-38.826 z" id="path288" />
              <path d="m 556.85061,509.68365 12.69596,7.30756 -25.46573,40.00703 -11.95782,-7.60281 z" id="path289" />
              <path d="m 570.65377,517.80316 13.58173,9.07908 -26.13006,39.12127 -12.62214,-8.48858 z" id="path290" />
              <path d="m 546.22144,503.85237 9.07908,5.31458 -24.13708,39.78559 -8.26714,-6.27416 z" id="path291" />
              <path d="m 585.26889,527.54657 8.48858,5.46222 -24.06327,40.44991 -10.55536,-6.71705 z" id="path292" />
              <path d="m 577.07557,520.46045 24.28471,-36.75922 14.98418,10.03866 -16.90334,25.61336 -3.02636,-1.77153 -7.30756,10.92443 z" id="N-18" />
              <path d="m 563.05096,458.97364 -23.32514,38.38313 12.54833,8.41476 23.39895,-38.826 z" id="path294" />
              <path d="m 549.17398,449.89455 -23.32514,38.38313 12.54833,8.41476 23.39895,-38.826 z" id="path295" />
              <path d="m 553.38137,506.28822 11.81019,6.79086 23.02988,-38.60457 -11.66257,-7.23374 z" id="path296" />
              <path d="m 589.40246,475.58172 10.62917,7.30755 -23.91564,37.34974 -9.89104,-6.64323 z" id="N-19" />
              <path d="m 535.29033,440.70838 -23.32514,38.38313 12.54833,8.41476 23.39895,-38.826 z" id="path298" />
              <path d="m 521.54238,431.80464 -23.32514,38.38313 12.54833,8.41476 23.39895,-38.826 z" id="path299" />
              <path d="m 507.34556,422.98382 -23.32514,38.38313 12.54833,8.41476 23.39895,-38.826 z" id="path300" />
              <path d="m 493.72288,413.95423 -23.32514,38.38313 12.54833,8.41476 23.39895,-38.826 z" id="path301" />
              <path d="m 479.68265,404.61147 -23.32514,38.38313 12.54833,8.41476 23.39895,-38.826 z" id="path302" />
              <path d="m 465.69461,395.4253 -23.32514,38.38313 12.54833,8.41476 23.39895,-38.826 z" id="path303" />
              <path d="m 412.32337,469.45518 11.21968,8.11951 23.6942,-38.60457 -11.73637,-7.45518 z" id="path304" />
              <path d="m 447.90158,440.07732 -23.17751,38.30932 13.80317,8.85764 23.62038,-38.53075 z" id="path305" />
              <path d="m 309.929,325.58725 11.79588,9.60373 27.45414,-34.0306 -11.6915,-10.02128 z" id="path306" />
              <path d="m 323.08193,336.23486 11.79588,9.60373 27.45414,-34.0306 -11.6915,-10.02128 z" id="path307" />
              <path d="m 335.9217,347.09125 11.79588,9.60373 27.45414,-34.0306 -11.6915,-10.02128 z" id="path308" />
              <path d="m 348.97024,357.53008 11.79588,9.60373 27.45414,-34.0306 -11.90028,-9.18617 z" id="path309" />
              <path d="m 361.91439,368.0733 11.06516,8.87301 27.24536,-33.92621 -10.85639,-8.55984 z" id="path310" />
              <path d="m 374.3366,377.9902 11.06516,8.87301 27.24536,-33.92621 -10.85639,-8.55984 z" id="path311" />
              <path d="m 386.75881,388.22026 11.06516,8.87301 27.24536,-33.92621 -10.85639,-8.55984 z" id="path312" />
              <path d="m 399.28541,398.45032 11.06516,8.87301 27.24536,-33.92621 -10.85639,-8.55984 z" id="path313" />
              <path d="m 411.70762,408.99354 11.06516,8.87301 27.24536,-33.92621 -10.85639,-8.55984 z" id="path314" />
              <path d="m 281.01343,361.49684 11.79588,9.60373 27.45414,-34.0306 -11.6915,-10.02128 z" id="path315" />
              <path d="m 294.16636,372.35323 11.16955,8.76862 27.34975,-33.82182 -10.64761,-8.9774 z" id="path316" />
              <path d="m 306.69296,382.4789 11.16955,8.76862 27.34975,-33.82182 -10.64761,-8.9774 z" id="path317" />
              <path d="m 318.80201,392.70896 11.16955,8.76862 27.34975,-33.82182 -10.64761,-8.9774 z" id="path318" />
              <path d="m 332.16372,403.35657 11.16955,8.76862 27.34975,-33.82182 -10.64761,-8.9774 z" id="path319" />
              <path d="m 345.31666,413.48224 10.85638,9.39495 27.34975,-33.82182 -10.64761,-8.9774 z" id="path320" />
              <path d="m 357.4257,424.33864 11.16955,8.76862 27.34975,-33.82182 -10.64761,-8.9774 z" id="path321" />
              <path d="m 369.84791,434.46431 10.96077,9.39495 27.55853,-34.44815 -10.64761,-8.9774 z" id="path322" />
              <path d="m 382.06135,445.00753 11.16955,8.76862 27.34975,-33.82182 -10.64761,-8.9774 z" id="path323" />
              <path d="m 177.77335,309.0939 12.00466,10.23005 -28.08046,33.50866 -11.58711,-9.70812 z" id="path324" />
              <path d="m 191.13506,320.47223 10.96077,8.97739 -27.24535,34.86571 -12.21344,-10.54323 z" id="path325" />
              <path d="m 165.35114,298.65507 11.48272,9.49933 -27.55852,34.23938 -11.58711,-9.70812 z" id="path326" />
              <path d="m 203.09289,330.36326 11.62509,9.12502 -28.50018,35.23478 -10.29428,-8.99314 z" id="path327" />
              <path d="m 212.95223,335.81731 12.5266,9.91689 27.55852,-35.17887 -12.10905,-9.70812 z" id="path328" />
              <path d="m 226.52272,346.77809 11.27394,9.08178 27.45413,-35.49203 -10.752,-8.55985 z" id="path329" />
              <path d="m 200.53001,326.21358 11.37833,8.76862 27.55852,-35.17887 -10.85639,-8.45546 z" id="path330" />
              <path d="m 188.52535,315.35719 11.27394,9.91689 27.55852,-35.17887 -10.85639,-8.45546 z" id="path331" />
              <path d="m 188.52535,315.35719 11.27394,9.91689 27.55852,-35.17887 -10.85639,-8.45546 z" id="path332" />
              <path d="m 175.90321,304.72802 11.27394,9.91689 28.0014,-34.14548 -11.29927,-9.48885 z" id="path333" />
              <path d="m 163.42869,293.8774 11.27394,9.91689 28.0014,-34.14548 -11.29927,-9.48885 z" id="path334" />
              <path d="m 150.95417,284.06018 11.0525,8.73587 28.29665,-33.48116 -11.59452,-10.15317 z" id="path335" />
              <path d="m 150.95417,284.06018 11.0525,8.73587 28.29665,-33.48116 -11.59452,-10.15317 z" id="path336" />
              <path d="m 139.07016,272.8405 10.24055,9.54782 28.37046,-34.29311 -11.66833,-9.34122 z" id="path337" />
              <path d="m 250.44991,208.22847 11.95782,10.03866 -29.67311,36.24254 -11.81019,-10.03867 z" id="path338" />
              <path d="m 263.51494,219.30053 10.55536,9.22671 -29.37786,36.31635 -10.70298,-9.30053 z" id="path339" />
              <path d="m 275.39895,229.56064 10.55536,9.22671 -29.37786,36.31635 -10.70298,-9.30053 z" id="path340" />
              <path d="m 287.79965,239.89456 10.55536,9.22671 -29.37786,36.31635 -10.70298,-9.30053 z" id="path341" />
              <path d="m 300.05273,250.37611 10.55536,9.22671 -29.37786,36.31635 -10.70298,-9.30053 z" id="path342" />
              <path d="m 237.82777,197.89455 11.58875,9.1529 -29.67311,36.24254 -10.99824,-9.00528 z" id="path343" />
              <path d="m 225.72232,187.78207 10.85061,8.78383 -29.67311,36.24254 -10.11248,-8.0457 z" id="path344" />
              <path d="m 274.80843,226.60808 12.76977,10.7768 24.47034,-32.69422 -12.4387,-9.89629 z" id="N-31" />
              <path d="m 289.10963,238.0908 11.30833,9.52414 24.99228,-33.00738 -12.02114,-8.53925 z" id="path346" />
              <path d="m 262.28183,216.16925 11.30833,9.52414 24.34062,-32.07313 -11.39481,-8.59515 z" id="N-30" />
              <path d="m 302.05378,248.94719 11.30833,9.52414 24.99228,-34.26004 -11.29042,-8.43486 z" id="path348" />
              <path d="m 247.61527,203.83352 13.44829,11.57762 24.26156,-31.49375 -13.23952,-9.41017 z" id="path349" />
              <path d="m 233.29541,192.02333 13.33757,11.09783 23.78177,-29.83294 -13.35024,-10.70191 z" id="N-29" />
              <path d="m 112.16528,129.8591 24.84442,37.47542 12.05686,-8.24668 -24.32249,-38.10174 z" id="path351" />
              <path d="m 125.99674,120.15098 24.42687,38.41492 13.36171,-8.24668 -25.67954,-38.41491 z" id="path352" />
              <path d="m 140.19356,111.12139 24.42687,38.41492 12.94416,-8.76862 -25.26199,-37.89297 z" id="path353" />
              <path d="m 122.44753,175.94656 c 0.99169,-0.36536 12.5788,-8.19449 12.5788,-8.19449 l -24.53127,-36.79689 -12.683179,8.76862 z" id="path354" />
              <path d="m 136.95751,425.4869 25.67954,-9.8125 -22.96544,-29.43751 z" id="zona-verde-1" />
            </g>
            <!-- Text labels -->
            <g id="g-texts" pointer-events="none">
<text
       xml:space="preserve"
       style="font-size:10.0299px;text-align:start;writing-mode:lr-tb;direction:ltr;text-anchor:start;fill:none;stroke:#000000"
       x="-2.3454738"
       y="159.3602"
       id="text253"
       transform="rotate(-36.2)"><tspan
         sodipodi:role="line"
         id="tspan253"
         x="-2.3454738"
         y="159.3602">Area Verde</tspan></text>
<text
       xml:space="preserve"
       style="text-align:start;writing-mode:lr-tb;direction:ltr;text-anchor:start;display:inline;fill:none;stroke:#000000"
       x="-27.65505"
       y="260.86069"
       id="text253-8"
       transform="rotate(-36.2)"><tspan
         sodipodi:role="line"
         id="tspan253-2"
         x="-27.65505"
         y="260.86069">Av. Puente Grande</tspan></text>
<text
       xml:space="preserve"
       style="font-size:12.0299px;text-align:start;writing-mode:lr-tb;direction:ltr;text-anchor:start;fill:none;stroke:#000000;stroke-width:1.0025"
       x="287.79471"
       y="66.149391"
       id="text254"
       transform="matrix(0.77166901,0.63276855,-0.63318667,0.77667935,0,0)"><tspan
         sodipodi:role="line"
         id="tspan254"
         x="287.79471"
         y="66.149391"
         style="stroke-width:1.0025">Calle san Antonio</tspan></text>
<text
       xml:space="preserve"
       style="font-size:12.0299px;text-align:start;writing-mode:lr-tb;direction:ltr;text-anchor:start;display:inline;fill:none;stroke:#000000;stroke-width:1.0025"
       x="251.96262"
       y="-81.401222"
       id="text254-7"
       transform="matrix(0.09577324,0.99332606,-0.99717246,0.09901099,0,0)"><tspan
         sodipodi:role="line"
         id="tspan254-1"
         x="251.96262"
         y="-81.401222"
         style="stroke-width:1.0025">Calle Zapotlanejo</tspan></text>
<text
       xml:space="preserve"
       style="font-size:12.0299px;text-align:start;writing-mode:lr-tb;direction:ltr;text-anchor:start;display:inline;fill:none;stroke:#000000;stroke-width:1.0025"
       x="626.6308"
       y="-76.330338"
       id="text254-7-6"
       transform="matrix(0.09577324,0.99332606,-0.99717246,0.09901099,0,0)"><tspan
         sodipodi:role="line"
         id="tspan254-1-3"
         x="626.6308"
         y="-76.330338"
         style="stroke-width:1.0025">Calle Zapotlanejo</tspan></text>
<text
       xml:space="preserve"
       style="font-size:12.0299px;text-align:start;writing-mode:lr-tb;direction:ltr;text-anchor:start;display:inline;fill:none;stroke:#000000;stroke-width:1.0025"
       x="-122.13815"
       y="425.69165"
       id="text254-6"
       transform="matrix(0.62487041,-0.77807842,0.78309281,0.62523745,0,0)"><tspan
         sodipodi:role="line"
         id="tspan254-14"
         x="-122.13815"
         y="425.69165"
         style="stroke-width:1.0025">Av. Huentitan</tspan></text>
<text
       xml:space="preserve"
       style="font-size:12.0299px;text-align:start;writing-mode:lr-tb;direction:ltr;text-anchor:start;display:inline;fill:none;stroke:#000000;stroke-width:1.0025"
       x="296.599"
       y="-45.703369"
       id="text254-1"
       transform="matrix(0.77166901,0.63276855,-0.63318667,0.77667935,0,0)"><tspan
         sodipodi:role="line"
         id="tspan254-6"
         x="296.599"
         y="-45.703369"
         style="stroke-width:1.0025">Av. Juanacatlan</tspan></text>
<text
       xml:space="preserve"
       style="font-size:12.0299px;text-align:start;writing-mode:lr-tb;direction:ltr;text-anchor:start;display:inline;fill:none;stroke:#000000;stroke-width:1.0025"
       x="523.11847"
       y="-4.6949148"
       id="text254-1-1"
       transform="matrix(0.77166901,0.63276855,-0.63318667,0.77667935,0,0)"><tspan
         sodipodi:role="line"
         id="tspan254-6-8"
         x="523.11847"
         y="-4.6949148"
         style="stroke-width:1.0025">Av. Juanacatlan</tspan></text>
<text
       xml:space="preserve"
       style="font-size:12.0299px;text-align:start;writing-mode:lr-tb;direction:ltr;text-anchor:start;display:inline;fill:none;stroke:#000000;stroke-width:1.0025"
       x="567.24646"
       y="167.49278"
       id="text254-1-1-5"
       transform="matrix(0.82191138,0.56597775,-0.56597514,0.82693911,0,0)"><tspan
         sodipodi:role="line"
         id="tspan254-6-8-4"
         x="567.24646"
         y="167.49278"
         style="stroke-width:1.0025">Calle San Antonio</tspan></text>
<text
       xml:space="preserve"
       style="font-size:12.0299px;text-align:start;writing-mode:lr-tb;direction:ltr;text-anchor:start;display:inline;fill:none;stroke:#000000;stroke-width:1.0025"
       x="432.44202"
       y="-708.8587"
       id="text254-1-1-5-4"
       transform="matrix(-0.1552809,0.98577731,-0.99031041,-0.15310616,0,0)"><tspan
         sodipodi:role="line"
         id="tspan254-6-8-4-8"
         x="432.44202"
         y="-708.8587"
         style="stroke-width:1.0025">Av. Colimilla</tspan></text>
<text
       xml:space="preserve"
       style="font-size:12.0299px;text-align:start;writing-mode:lr-tb;direction:ltr;text-anchor:start;display:inline;fill:none;stroke:#000000;stroke-width:1.0025"
       x="618.85278"
       y="284.086"
       id="text254-1-1-5-3"
       transform="matrix(0.82191138,0.56597775,-0.56597514,0.82693911,0,0)"><tspan
         sodipodi:role="line"
         id="tspan254-6-8-4-4"
         x="618.85278"
         y="284.086"
         style="stroke-width:1.0025">Calle San Cristobal</tspan></text>
<text
       xml:space="preserve"
       style="font-size:12.0299px;text-align:start;writing-mode:lr-tb;direction:ltr;text-anchor:start;display:inline;fill:none;stroke:#000000;stroke-width:1.0025"
       x="696.75574"
       y="400.43399"
       id="text254-1-1-5-3-7"
       transform="matrix(0.82191138,0.56597775,-0.56597514,0.82693911,0,0)"><tspan
         sodipodi:role="line"
         id="tspan254-6-8-4-4-4"
         x="696.75574"
         y="400.43399"
         style="stroke-width:1.0025">Calle Huaxtla</tspan></text>
<text
       xml:space="preserve"
       style="font-size:12.0299px;text-align:start;writing-mode:lr-tb;direction:ltr;text-anchor:start;display:inline;fill:none;stroke:#000000;stroke-width:1.0025"
       x="776.92157"
       y="525.4494"
       id="text254-1-1-5-3-7-3"
       transform="matrix(0.82191138,0.56597775,-0.56597514,0.82693911,0,0)"><tspan
         sodipodi:role="line"
         id="tspan254-6-8-4-4-4-1"
         x="776.92157"
         y="525.4494"
         style="stroke-width:1.0025">Calle Ixcatan </tspan></text>
<text
       xml:space="preserve"
       style="font-size:12.0299px;text-align:start;writing-mode:lr-tb;direction:ltr;text-anchor:start;display:inline;fill:none;stroke:#000000;stroke-width:1.0025"
       x="902.92151"
       y="644.93805"
       id="text254-1-1-5-3-7-3-0"
       transform="matrix(0.82191138,0.56597775,-0.56597514,0.82693911,0,0)"><tspan
         sodipodi:role="line"
         id="tspan254-6-8-4-4-4-1-2"
         x="902.92151"
         y="644.93805"
         style="stroke-width:1.0025">Calle el Paso </tspan></text>
<text
       xml:space="preserve"
       style="font-size:12.0299px;text-align:start;writing-mode:lr-tb;direction:ltr;text-anchor:start;display:inline;fill:none;stroke:#000000;stroke-width:1.0025"
       x="904.23535"
       y="-394.82019"
       id="text254-1-1-5-4-0"
       transform="matrix(0.31414106,0.94719829,-0.95022891,0.31815264,0,0)"><tspan
         sodipodi:role="line"
         id="tspan254-6-8-4-8-0"
         x="904.23535"
         y="-394.82019"
         style="stroke-width:1.0025">Av. Colimilla</tspan></text>
<text
       xml:space="preserve"
       style="font-size:12.0299px;text-align:start;writing-mode:lr-tb;direction:ltr;text-anchor:start;display:inline;fill:none;stroke:#000000;stroke-width:1.0025"
       x="941.43188"
       y="-719.75256"
       id="text254-1-1-5-4-0-9"
       transform="matrix(-0.04616956,0.99686381,-1.0011309,-0.04351049,0,0)"><tspan
         sodipodi:role="line"
         id="tspan254-6-8-4-8-0-3"
         x="941.43188"
         y="-719.75256"
         style="stroke-width:1.0025">Av. Colimilla</tspan></text>
<text
       xml:space="preserve"
       style="font-size:12.0299px;text-align:start;writing-mode:lr-tb;direction:ltr;text-anchor:start;display:inline;fill:none;stroke:#000000;stroke-width:1.0025"
       x="344.89594"
       y="-1208.5227"
       id="text254-1-1-5-4-0-6"
       transform="matrix(-0.71847833,0.69257346,-0.69750081,-0.71947813,0,0)"><tspan
         sodipodi:role="line"
         id="tspan254-6-8-4-8-0-6"
         x="344.89594"
         y="-1208.5227"
         style="stroke-width:1.0025">Av. Colimilla</tspan></text>
<text
       xml:space="preserve"
       style="font-size:12.0299px;text-align:start;writing-mode:lr-tb;direction:ltr;text-anchor:start;display:inline;fill:none;stroke:#000000;stroke-width:1.0025"
       x="668.5318"
       y="641.56696"
       id="text-blanco-1"
       transform="matrix(0.82191138,0.56597775,-0.56597514,0.82693911,0,0)"><tspan
         sodipodi:role="line"
         id="tspan254-6-8-4-4-4-1-1"
         x="668.5318"
         y="641.56696"
         style="stroke-width:1.0025">Area de </tspan><tspan
         sodipodi:role="line"
         x="668.5318"
         y="656.60431"
         style="stroke-width:1.0025"
         id="tspan355">Donacion</tspan></text>
<text
       xml:space="preserve"
       style="font-size:12.0299px;text-align:start;writing-mode:lr-tb;direction:ltr;text-anchor:start;display:inline;fill:none;stroke:#000000;stroke-width:1.0025"
       x="958.33502"
       y="757.31238"
       id="text-blanco-2"
       transform="matrix(0.82191138,0.56597775,-0.56597514,0.82693911,0,0)"><tspan
         sodipodi:role="line"
         id="tspan254-6-8-4-4-4-1-1-0"
         x="958.33502"
         y="757.31238"
         style="stroke-width:1.0025">Area de </tspan><tspan
         sodipodi:role="line"
         x="958.33502"
         y="772.34973"
         style="stroke-width:1.0025"
         id="tspan355-7">Donacion</tspan></text>
<text
       xml:space="preserve"
       style="font-size:12.0299px;text-align:start;writing-mode:lr-tb;direction:ltr;text-anchor:start;display:inline;fill:none;stroke:#000000;stroke-width:1.0025"
       x="923.56824"
       y="681.46753"
       id="text-blanco-3"
       transform="matrix(0.82191138,0.56597775,-0.56597514,0.82693911,0,0)"><tspan
         sodipodi:role="line"
         x="923.56824"
         y="681.46753"
         style="stroke-width:1.0025"
         id="tspan355-7-2">Area de Donacion</tspan></text>
<text
       xml:space="preserve"
       style="font-size:12.0299px;text-align:start;writing-mode:lr-tb;direction:ltr;text-anchor:start;display:inline;fill:none;stroke:#000000;stroke-width:1.0025"
       x="584.44989"
       y="11.044574"
       id="text-blanco-4"
       transform="matrix(0.82191138,0.56597775,-0.56597514,0.82693911,0,0)"><tspan
         sodipodi:role="line"
         x="584.44989"
         y="11.044574"
         style="stroke-width:1.0025"
         id="tspan355-7-2-2">Area de Donacion</tspan></text>
            </g>
          </svg>